HIERARCHY
ROOT Hips
{
	OFFSET 0.000000 0.000000 0.000000 
	CHANNELS 6 Xposition Yposition Zposition Zrotation Yrotation Xrotation
	JOINT LeftUpLeg
	{
		OFFSET 1.363060 -1.794630 0.839290 
		CHANNELS 3 Zrotation Yrotation Xrotation
		JOINT LeftLeg
		{
			OFFSET 2.448110 -6.726130 0.000000 
			CHANNELS 3 Zrotation Yrotation Xrotation
			JOINT LeftFoot
			{
				OFFSET 2.562200 -7.039590 0.000000 
				CHANNELS 3 Zrotation Yrotation Xrotation
				JOINT LeftToeBase
				{
					OFFSET 0.157640 -0.433110 2.322550 
					CHANNELS 3 Zrotation Yrotation Xrotation
					End Site
					{
						OFFSET 0.000000 0.000000 0.000000 
					}
				}
			}
		}
	}
	JOINT RightUpLeg
	{
		OFFSET -1.305520 -1.794630 0.839290 
		CHANNELS 3 Zrotation Yrotation Xrotation
		JOINT RightLeg
		{
			OFFSET -2.542530 -6.985550 0.000000 
			CHANNELS 3 Zrotation Yrotation Xrotation
			JOINT RightFoot
			{
				OFFSET -2.568260 -7.056230 0.000000 
				CHANNELS 3 Zrotation Yrotation Xrotation
				JOINT RightToeBase
				{
					OFFSET -0.164730 -0.452590 2.363150 
					CHANNELS 3 Zrotation Yrotation Xrotation
					End Site
					{
						OFFSET 0.000000 0.000000 0.000000 
					}
				}
			}
		}
	}
	JOINT Spine
	{
		OFFSET 0.028270 2.035590 -0.193380 
		CHANNELS 3 Zrotation Yrotation Xrotation
		JOINT Spine1
		{
			OFFSET 0.056720 2.048850 -0.042750 
			CHANNELS 3 Zrotation Yrotation Xrotation
			JOINT Neck1
			{
				OFFSET -0.054170 1.746240 0.172020 
				CHANNELS 3 Zrotation Yrotation Xrotation
				JOINT Head
				{
					OFFSET 0.104070 1.761360 -0.123970 
					CHANNELS 3 Zrotation Yrotation Xrotation
					End Site
					{
						OFFSET 0.000000 0.000000 0.000000 
					}
				}
			}
			JOINT LeftArm
			{
				OFFSET 3.362410 1.200890 -0.311210 
				CHANNELS 3 Zrotation Yrotation Xrotation
				JOINT LeftForeArm
				{
					OFFSET 4.983000 -0.000000 -0.000000 
					CHANNELS 3 Zrotation Yrotation Xrotation
					JOINT LeftHand
					{
						OFFSET 3.483560 -0.000000 -0.000000 
						CHANNELS 3 Zrotation Yrotation Xrotation
						JOINT LeftHandIndex1
						{
							OFFSET 0.715260 -0.000000 -0.000000 
							CHANNELS 3 Zrotation Yrotation Xrotation
							End Site
							{
								OFFSET 0.000000 0.000000 0.000000 
							}
						}
					}
				}
			}
			JOINT RightArm
			{
				OFFSET -3.136600 1.374050 -0.404650 
				CHANNELS 3 Zrotation Yrotation Xrotation
				JOINT RightForeArm
				{
					OFFSET -5.241900 -0.000000 -0.000000 
					CHANNELS 3 Zrotation Yrotation Xrotation
					JOINT RightHand
					{
						OFFSET -3.444170 -0.000000 -0.000000 
						CHANNELS 3 Zrotation Yrotation Xrotation
						JOINT RightHandIndex1
						{
							OFFSET -0.622530 -0.000000 -0.000000 
							CHANNELS 3 Zrotation Yrotation Xrotation
							End Site
							{
								OFFSET 0.000000 0.000000 0.000000 
							}
						}
					}
				}
			}
		}
	}
}
MOTION
Frames: 16
Frame Time: 0.041667
-1.990095 18.486764 6.095640 -139.493254 -74.585359 157.415292 -4.376286 -5.325389 -30.760790 0.277908 10.712881 28.750709 -0.236709 4.020531 8.280578 0.699900 -5.347600 -14.902700 10.662010 17.538771 -13.884809 -15.961027 -19.073283 79.452814 0.416971 -4.089886 -8.606011 -0.664200 5.212100 -14.514500 1.831229 1.830954 1.686229 -2.874834 1.193647 -4.071284 -0.337265 2.546687 -0.406682 -2.451300 1.154800 -4.274600 -99.120258 35.768735 -62.384301 4.811710 -7.574674 -0.619096 -0.675880 0.486422 60.070768 -7.125000 0.000000 0.000000 64.751934 -20.664163 -19.278745 -63.267761 52.790205 -43.816265 -1.348010 0.088217 -67.239958 7.125000 0.000000 0.000000 
-2.005158 18.464170 6.093783 -135.338502 -74.608292 154.190837 -3.457092 -6.604647 -31.096000 0.445976 10.916060 29.249629 -0.331034 4.194170 7.570984 0.560900 -4.797100 -13.330800 11.031567 17.188113 -10.979385 -12.947625 -18.388319 70.645414 1.139100 -6.514157 -8.711218 -0.660600 5.198300 -14.474900 1.956657 1.999361 1.573597 -3.081398 1.286713 -3.985819 -0.690456 2.746742 -0.325849 -2.636800 1.251100 -4.184100 -99.201228 37.048627 -70.590321 4.777765 -7.244285 -0.575281 -0.569579 0.470282 65.251206 -7.125000 0.000000 0.000000 64.611008 -21.310745 -19.660042 -62.609527 52.628135 -43.248007 -1.335120 0.007312 -67.824516 7.125000 0.000000 0.000000 
-2.021356 18.413409 6.089140 -131.981368 -74.588519 151.695582 -2.774937 -7.662076 -31.669594 0.707972 11.271905 30.211085 -0.333301 4.050299 6.383794 0.428200 -4.199600 -11.638900 11.090314 17.053862 -8.241107 -9.983997 -17.307174 61.845010 2.212737 -9.637772 -8.500007 -0.375000 3.933200 -10.888800 2.056771 2.158504 1.453838 -3.264056 1.371987 -3.883513 -0.995940 3.010243 -0.289240 -2.810900 1.375200 -4.130200 -99.194598 38.439000 -75.746852 4.844824 -7.185882 -0.561404 -0.517681 0.420056 66.773204 -7.125000 0.000000 0.000000 64.534776 -22.056411 -19.989197 -62.382354 52.587555 -43.098481 -1.315736 -0.070039 -68.222005 7.125000 0.000000 0.000000 
-2.025690 18.331386 6.079957 -129.379940 -74.527933 149.871373 -2.251555 -8.449517 -32.428418 1.008710 11.688988 31.355069 -0.248575 3.669942 5.055582 0.417700 -4.148400 -11.494400 10.870283 17.287029 -5.839427 -7.180841 -15.872273 53.381690 2.370466 -9.942653 -8.787084 -0.842300 5.854200 -16.361900 2.114550 2.192479 1.295281 -3.462946 1.392934 -3.924764 -1.277683 3.463743 -0.486395 -3.034200 1.580700 -4.266400 -99.149585 39.836119 -79.800843 4.948799 -7.236485 -0.565536 -0.529376 0.363443 66.442319 -7.125000 0.000000 0.000000 64.506358 -22.874607 -19.947813 -62.596140 52.674349 -43.356764 -1.306809 -0.116921 -68.470501 7.125000 0.000000 0.000000 
-2.008150 18.229039 6.060045 -128.398289 -74.443266 149.510217 -2.017463 -8.823410 -33.313251 1.285522 12.092748 32.448161 -0.088611 3.107714 4.018815 0.426000 -4.188700 -11.608200 10.258377 17.885264 -3.681210 -4.724590 -14.186269 45.450153 2.332496 -9.498728 -7.527042 -0.837100 5.836400 -16.310500 2.112533 2.252005 1.115240 -3.575356 1.427848 -4.138990 -1.434843 3.963390 -0.749710 -3.198900 1.806900 -4.454100 -98.792694 41.098002 -83.570080 5.062855 -7.296830 -0.575726 -0.566988 0.309370 66.008336 -7.125000 0.000000 0.000000 64.675217 -23.608385 -19.965749 -63.092706 52.826698 -43.869862 -1.293051 -0.152055 -68.757585 7.125000 0.000000 0.000000 
-1.997627 18.163834 6.036625 -129.899714 -74.371801 151.424617 -2.292864 -8.711481 -34.088750 1.476947 12.414242 33.311500 0.084223 2.523971 3.270527 0.424400 -4.181200 -11.587000 9.161176 18.884862 -1.999827 -2.722856 -12.390223 38.311771 1.830852 -7.807883 -4.441653 -1.283400 7.179000 -20.246700 2.016400 2.650209 1.042897 -3.667280 1.651467 -4.087871 -1.408001 4.149061 -0.741752 -3.163400 1.891600 -4.378000 -97.334094 41.840569 -85.753477 5.176081 -7.352800 -0.591708 -0.600417 0.287553 66.261470 -7.125000 0.000000 0.000000 65.469807 -24.000892 -21.026829 -63.921170 53.041126 -44.680733 -1.269754 -0.188249 -68.806438 7.125000 0.000000 0.000000 
-1.991127 18.137113 6.013205 -133.357957 -74.129402 154.955533 -2.930523 -8.029591 -34.528252 1.518452 12.552287 33.653756 0.216922 2.102711 3.067928 0.396300 -4.042000 -11.194800 7.949245 20.015928 -0.723906 -1.189290 -10.660936 32.273964 0.827620 -5.127771 -1.023792 -0.846600 5.868700 -16.403900 1.850678 2.835486 0.967831 -3.646871 1.778923 -4.243973 -1.487761 4.633115 -0.793496 -3.282300 2.111500 -4.406500 -96.216260 42.501497 -87.322212 5.288222 -7.431835 -0.612596 -0.627122 0.297248 66.321270 -7.125000 0.000000 0.000000 66.268470 -24.119064 -21.374522 -64.989119 53.305874 -45.677077 -1.263250 -0.193544 -68.489955 7.125000 0.000000 0.000000 
-1.961929 18.118954 5.979261 -138.772924 -73.612931 160.023381 -3.848043 -6.911123 -34.727542 1.443326 12.560605 33.602810 0.297896 1.868066 3.244187 0.363300 -3.871800 -10.716400 6.700558 21.256532 0.307365 -0.118950 -9.200399 27.588292 0.071323 -3.369648 0.071178 -1.263400 7.124900 -20.086000 1.676873 3.110979 0.716879 -3.341214 1.943132 -5.279762 -1.577082 5.069114 -1.255676 -3.467800 2.348200 -5.098300 -95.236857 43.911006 -87.951154 5.306825 -7.428238 -0.623498 -0.635647 0.331181 66.371893 -7.125000 0.000000 0.000000 66.837758 -25.167655 -21.023014 -66.246630 53.646288 -46.871151 -1.265268 -0.173428 -68.084783 7.125000 0.000000 0.000000 
-1.929739 18.152279 5.942532 -147.122723 -73.024228 167.716429 -5.323145 -5.796323 -34.564913 1.223766 12.455481 33.174035 0.298836 1.877900 3.323452 0.337700 -3.734200 -10.330200 5.043957 21.905857 0.619046 0.497741 -8.096288 24.363373 -0.853332 -1.199584 2.654471 -1.050500 6.517600 -18.293800 1.403171 3.391518 0.702135 -2.932614 2.127944 -5.754052 -1.631391 5.453581 -1.512275 -3.555600 2.532000 -5.349300 -93.498798 43.974560 -86.848533 5.301656 -7.386322 -0.633754 -0.636738 0.388341 66.366268 -7.125000 0.000000 0.000000 67.560572 -25.088824 -21.124487 -67.398273 53.909633 -47.923932 -1.261636 -0.145024 -67.527565 7.125000 0.000000 0.000000 
-1.882899 18.192619 5.899715 -149.189709 -72.202960 169.411067 -5.264204 -5.087118 -34.120345 1.036373 12.204957 32.403914 0.221152 2.233685 3.915021 0.277400 -3.387400 -9.359200 5.052617 21.804473 0.002412 0.848560 -7.492261 22.593069 -1.269645 -0.218266 3.309130 -1.230200 7.034000 -19.816200 1.311091 3.549179 0.781407 -2.922677 2.186774 -5.746446 -1.743786 5.891634 -1.504718 -3.618400 2.726700 -5.201100 -91.798702 42.991071 -83.776009 5.297544 -7.423852 -0.652307 -0.651200 0.446585 64.734373 -7.125000 0.000000 0.000000 68.087276 -23.971204 -20.956689 -68.171117 54.048755 -48.601328 -1.254223 -0.105007 -66.647177 7.125000 0.000000 0.000000 
-1.828424 18.257721 5.855248 -150.587926 -71.281431 170.439222 -4.901975 -4.628653 -33.456142 0.824194 11.873210 31.417281 -0.000677 3.026767 4.515884 0.200300 -2.881800 -7.949800 5.432285 21.050954 -1.365868 0.959056 -7.294749 22.067527 -1.434038 0.214919 3.750602 -1.190700 6.924400 -19.491700 1.230563 3.607904 0.958230 -2.965072 2.176984 -5.383254 -1.834141 6.363478 -1.206214 -3.618000 2.928400 -4.682800 -90.118848 41.084823 -78.980148 5.297809 -7.541519 -0.682358 -0.693189 0.502115 61.212442 -7.125000 0.000000 0.000000 68.420128 -21.886386 -20.507846 -68.365508 54.017057 -48.688710 -1.250523 -0.047872 -65.297780 7.125000 0.000000 0.000000 
-1.770338 18.335926 5.813050 -149.661175 -70.292751 169.364242 -3.840084 -4.487811 -32.750132 0.654424 11.492404 30.322169 -0.344916 4.171100 5.094814 0.147500 -2.474600 -6.819100 6.632146 19.900070 -3.337280 0.946382 -7.380437 22.332875 -1.281619 -0.069699 3.415566 -1.279300 7.168000 -20.214100 1.284884 3.761835 0.908892 -3.029358 2.194006 -5.589435 -2.174319 6.766779 -0.976742 -3.800400 3.151600 -4.595700 -88.766411 40.032370 -70.323772 5.334119 -7.980873 -0.742524 -0.816495 0.472424 53.895552 -7.125000 0.000000 0.000000 68.452387 -20.751686 -19.656455 -68.374306 53.980526 -48.636329 -1.254896 0.003878 -63.996650 7.125000 0.000000 0.000000 
-1.710704 18.407115 5.771987 -148.439035 -69.443551 168.234695 -2.630479 -4.639259 -32.125116 0.479906 11.071247 29.089320 -0.794644 5.556657 5.638680 0.126800 -2.295600 -6.323200 8.072042 18.689236 -5.723587 0.859408 -7.610096 22.998322 -1.264169 -0.006481 2.261759 -1.499400 7.734600 -21.910700 1.362902 3.728657 0.848186 -3.098811 2.117243 -5.630102 -2.650380 7.441500 -0.602303 -4.082000 3.504900 -4.380300 -87.723293 38.796664 -59.487919 5.681269 -9.004006 -0.872803 -0.977924 0.336794 44.092113 -7.125000 0.000000 0.000000 68.417938 -19.372685 -18.618811 -68.432036 53.952416 -48.613016 -1.272660 0.068885 -62.651114 7.125000 0.000000 0.000000 
-1.653134 18.499351 5.730203 -147.997632 -68.631919 167.992398 -1.629649 -4.704816 -31.632825 0.289037 10.613817 27.747568 -1.278689 6.989897 6.330364 0.138600 -2.399200 -6.610100 9.375197 17.820664 -8.295839 0.782327 -7.800046 23.552623 -1.428933 0.516847 1.382673 -1.549800 7.857700 -22.282600 1.466189 3.545199 0.544349 -2.839852 1.956917 -6.460735 -3.086158 8.543122 -0.171268 -4.380100 4.073300 -4.131500 -87.357842 38.101781 -48.708734 6.531555 -10.730871 -1.122184 -1.105451 0.151362 33.645445 -7.125000 0.000000 0.000000 68.222697 -18.449497 -16.965326 -68.736617 53.970256 -48.807406 -1.289791 0.154560 -61.198034 7.125000 0.000000 0.000000 
-1.600412 18.586326 5.685426 -148.172061 -67.889110 168.389871 -0.917722 -4.526452 -31.251964 0.103669 10.162297 26.454678 -1.612614 8.016845 7.191279 0.134600 -2.364300 -6.513600 10.539112 17.236560 -10.891487 0.730691 -7.942839 23.939047 -1.724019 1.406484 1.033903 -1.488500 7.707600 -21.829500 1.485354 3.403797 0.439596 -2.816789 1.835550 -6.531839 -3.714915 9.749896 0.020190 -4.805700 4.655200 -3.878400 -86.445939 36.756005 -39.182004 7.861129 -12.983913 -1.514434 -1.186528 -0.015427 24.554997 -7.125000 0.000000 0.000000 68.356342 -17.013111 -15.795394 -69.100143 54.009604 -49.038263 -1.304283 0.271379 -59.785498 7.125000 0.000000 0.000000 
-1.556977 18.670721 5.636935 -148.085072 -67.570956 168.405181 -0.373535 -4.268833 -30.859027 -0.061998 9.733827 25.299414 -1.678254 8.381236 8.294576 0.099500 -2.034100 -5.600000 11.780442 16.804099 -13.304686 0.710485 -8.048957 24.157195 -2.105513 2.548029 0.594739 -1.357000 7.373800 -20.827500 1.490554 3.257769 0.444447 -2.972993 1.712867 -6.258379 -4.442890 10.903501 0.097020 -5.268200 5.195300 -3.607600 -85.004926 35.007638 -30.907508 9.596893 -15.634547 -2.078038 -1.233794 -0.165916 16.872482 -7.125000 0.000000 0.000000 68.673829 -15.680334 -15.111982 -69.739217 54.125945 -49.546288 -1.314913 0.397903 -58.816395 7.125000 0.000000 0.000000 
